<svg xmlns="http://www.w3.org/2000/svg" width="350.687" height="64.074" viewBox="0 0 350.687 64.074">
  <g id="ns-logo-colored" transform="translate(-304.81 442.807)">
    <path id="Path_251" data-name="Path 251" d="M304.81-335.621v-42.594a.474.474,0,0,1,.474-.474h10.788a.474.474,0,0,1,.474.474v6.165a.473.473,0,0,0,.859.272q5.558-7.9,13.975-7.9a11.855,11.855,0,0,1,9.2,3.686q3.37,3.69,3.367,10.077v30.295a.474.474,0,0,1-.474.474H332.688a.474.474,0,0,1-.474-.474v-27.4c0-4.938-1.645-7.418-4.923-7.418q-5.543,0-10.667,7.772a.483.483,0,0,0-.08.265v26.786a.474.474,0,0,1-.474.474H305.284A.474.474,0,0,1,304.81-335.621Z" transform="translate(0 -45.045)" fill="#2c3b5c"/>
    <path id="Path_252" data-name="Path 252" d="M465.093-426.709v-8.851a.474.474,0,0,1,.474-.474H476.36a.473.473,0,0,1,.474.474v8.851a.474.474,0,0,1-.474.474H465.567A.474.474,0,0,1,465.093-426.709Zm0,50.877v-42.594a.474.474,0,0,1,.474-.474H476.36a.474.474,0,0,1,.474.474v42.594a.474.474,0,0,1-.474.474H465.567A.474.474,0,0,1,465.093-375.832Z" transform="translate(-114.367 -4.832)" fill="#2c3b5c"/>
    <path id="Path_253" data-name="Path 253" d="M531.411-380.665v-61.668a.474.474,0,0,1,.474-.474h10.791a.474.474,0,0,1,.474.474V-403.9a.474.474,0,0,0,.474.474h.041a.474.474,0,0,0,.376-.186l15.223-19.935a.474.474,0,0,1,.377-.186H568.2a.474.474,0,0,1,.376.762l-13.512,17.588a.474.474,0,0,0,0,.574l18.01,23.859a.474.474,0,0,1-.378.759H559.611a.474.474,0,0,1-.386-.2l-15.186-21.373a.474.474,0,0,0-.386-.2h-.03a.474.474,0,0,0-.474.474v20.824a.474.474,0,0,1-.474.474H531.885A.474.474,0,0,1,531.411-380.665Z" transform="translate(-161.687)" fill="#2c3b5c"/>
    <path id="Path_254" data-name="Path 254" d="M708.815-339.828a.471.471,0,0,0-.325.131q-5.811,5.552-12.436,5.546a12.691,12.691,0,0,1-9.279-3.495,12.088,12.088,0,0,1-3.567-9.042,12.651,12.651,0,0,1,5.768-11.124q5.768-3.9,16.516-3.9h2.66a.474.474,0,0,0,.474-.474v-3.5q0-6.771-7.736-6.781a28.059,28.059,0,0,0-13.173,3.512.475.475,0,0,1-.7-.417v-6.966a.477.477,0,0,1,.31-.447,44.188,44.188,0,0,1,15.468-2.9q17.094,0,17.093,13.6v19.271c0,3.418,1.1,5.119,3.294,5.119a8.28,8.28,0,0,0,1.027-.078.475.475,0,0,1,.538.449l.24,5.681a.477.477,0,0,1-.343.477,22.771,22.771,0,0,1-6.221,1.013q-7.025,0-9.168-5.373a.477.477,0,0,0-.441-.3Zm-.188-6.51V-354.5a.474.474,0,0,0-.474-.474h-2.3q-11.38,0-11.384,7.143a5.5,5.5,0,0,0,1.647,4.064,5.517,5.517,0,0,0,4.062,1.651q4.047,0,8.294-3.864A.481.481,0,0,0,708.626-346.338Z" transform="translate(-269.999 -45.045)" fill="#2c3b5c"/>
    <path id="Path_255" data-name="Path 255" d="M850.778-380.665v-61.668a.473.473,0,0,1,.474-.474h10.79a.474.474,0,0,1,.474.474v25.24a.473.473,0,0,0,.859.272q5.563-7.9,13.975-7.9a11.838,11.838,0,0,1,9.2,3.686q3.369,3.69,3.372,10.077v30.295a.474.474,0,0,1-.474.474H878.653a.474.474,0,0,1-.474-.474v-27.4c0-4.938-1.634-7.418-4.918-7.418q-5.546,0-10.667,7.772a.481.481,0,0,0-.079.264v26.786a.474.474,0,0,1-.474.474h-10.79A.474.474,0,0,1,850.778-380.665Z" transform="translate(-389.565)" fill="#2c3b5c"/>
    <path id="Path_256" data-name="Path 256" d="M1012.173-343.949a7,7,0,0,1-.248-.861.969.969,0,0,1,.017-.564.969.969,0,0,1,.281-.406,2.305,2.305,0,0,1,.546-.353l3.354-1.561a1.271,1.271,0,0,1,1.376.1,3,3,0,0,1,.777,1.074,6.27,6.27,0,0,0,1.677,2.415,10.7,10.7,0,0,0,2.489,1.714,12.8,12.8,0,0,0,2.722,1.009,10.1,10.1,0,0,0,2.358.334,12.706,12.706,0,0,0,2.97-.392,11.63,11.63,0,0,0,3.048-1.194,7.819,7.819,0,0,0,2.4-2.107,4.893,4.893,0,0,0,.969-3.044,4.832,4.832,0,0,0-.916-3.076,7.3,7.3,0,0,0-2.383-1.928,15.714,15.714,0,0,0-3.284-1.214q-1.821-.461-3.617-.951a31.5,31.5,0,0,1-5.667-2.067,17.8,17.8,0,0,1-4.235-2.826,10.911,10.911,0,0,1-2.661-3.668,11.266,11.266,0,0,1-.92-4.643,11.935,11.935,0,0,1,1.093-5.149,11.631,11.631,0,0,1,3.056-3.988,14.163,14.163,0,0,1,4.692-2.583,18.974,18.974,0,0,1,6.054-.918,19.422,19.422,0,0,1,4.675.494,11.908,11.908,0,0,1,3.476,1.464,13.428,13.428,0,0,1,2.793,2.408c.84.946,1.72,2.029,2.625,3.273.01.014.02.029.029.044a2.764,2.764,0,0,1,.446,1.2c.025.34-.187.673-.632,1l-2.721,2.063a.531.531,0,0,1-.067.043c-.524.285-.924.362-1.2.223a3.131,3.131,0,0,1-.918-.808c-.537-.641-1.068-1.246-1.589-1.83a9.713,9.713,0,0,0-1.761-1.58,8.592,8.592,0,0,0-2.241-1.092,9.765,9.765,0,0,0-2.983-.411,12.611,12.611,0,0,0-3.005.359,7.87,7.87,0,0,0-2.6,1.131,5.941,5.941,0,0,0-1.834,1.958,5.509,5.509,0,0,0-.685,2.806,3.529,3.529,0,0,0,.848,2.273,9.182,9.182,0,0,0,2.15,1.888,15.016,15.016,0,0,0,2.863,1.446,24.039,24.039,0,0,0,3,.957,35.841,35.841,0,0,1,6.122,1.97,19.714,19.714,0,0,1,4.751,2.858,12.232,12.232,0,0,1,3.071,3.867,11.193,11.193,0,0,1,1.088,5,12.255,12.255,0,0,1-1.214,5.516,12.143,12.143,0,0,1-3.385,4.169,15.805,15.805,0,0,1-5.176,2.632,22.525,22.525,0,0,1-6.531.912,19.425,19.425,0,0,1-4.568-.565,17.609,17.609,0,0,1-4.427-1.728,16.288,16.288,0,0,1-3.779-2.928A11.845,11.845,0,0,1,1012.173-343.949Z" transform="translate(-504.525 -44.244)" fill="#dc726f"/>
    <path id="Path_257" data-name="Path 257" d="M1177.846-340.2a.473.473,0,0,0-.8-.343,22.368,22.368,0,0,1-6.257,4.109,21.322,21.322,0,0,1-8.725,1.784,22.386,22.386,0,0,1-6.087-.83,23,23,0,0,1-5.525-2.361,24.267,24.267,0,0,1-4.695-3.654,23.99,23.99,0,0,1-3.648-4.715,23.136,23.136,0,0,1-2.368-5.536,22.554,22.554,0,0,1-.825-6.127,22.556,22.556,0,0,1,.825-6.126,22.834,22.834,0,0,1,2.368-5.523,24.05,24.05,0,0,1,3.648-4.7,23.755,23.755,0,0,1,4.695-3.635,23.239,23.239,0,0,1,5.507-2.342,22.311,22.311,0,0,1,6.1-.83,21.341,21.341,0,0,1,8.725,1.778,22.561,22.561,0,0,1,6.257,4.115.473.473,0,0,0,.8-.343v-2.713a2.027,2.027,0,0,1,2.027-2.027h3.161c1.11,0,1.656.512,1.656,1.553v41.751a1.446,1.446,0,0,1-.46,1.129,1.532,1.532,0,0,1-1.09.424h-3.67a1.543,1.543,0,0,1-1.181-.457,1.514,1.514,0,0,1-.443-1.1Zm.354-17.673a16.215,16.215,0,0,0-1.27-6.338,16.947,16.947,0,0,0-3.455-5.272,16.7,16.7,0,0,0-5.127-3.6,14.972,14.972,0,0,0-6.261-1.342,14.731,14.731,0,0,0-6.223,1.342,16.653,16.653,0,0,0-5.077,3.6,16.9,16.9,0,0,0-3.418,5.272,16.387,16.387,0,0,0-1.255,6.338,16.439,16.439,0,0,0,1.255,6.32,17.547,17.547,0,0,0,3.418,5.343,16.581,16.581,0,0,0,5.077,3.687,14.364,14.364,0,0,0,6.223,1.373,14.6,14.6,0,0,0,6.261-1.373,16.622,16.622,0,0,0,5.127-3.687,17.6,17.6,0,0,0,3.455-5.343A16.266,16.266,0,0,0,1178.2-357.872Z" transform="translate(-595.163 -44.084)" fill="#dc726f"/>
    <path id="Path_258" data-name="Path 258" d="M1330.219-356.728a14.322,14.322,0,0,1-3.263-.384,7.971,7.971,0,0,1-2.95-1.362,7.259,7.259,0,0,1-2.135-2.645,9.718,9.718,0,0,1-.825-4.292v-30.127a.474.474,0,0,0-.474-.474h-3.625a2.568,2.568,0,0,1-1.305-.262c-.278-.175-.423-.573-.423-1.19v-3.273c0-.611.144-1,.423-1.151a2.823,2.823,0,0,1,1.305-.23h3.625a.474.474,0,0,0,.474-.474v-7.041a1.209,1.209,0,0,1,.248-.86,1.843,1.843,0,0,1,.845-.45,6.868,6.868,0,0,1,.863-.161c.438-.052.888-.128,1.358-.224.567-.1,1.176-.2,1.837-.316a1.942,1.942,0,0,1,.954.07,1.048,1.048,0,0,1,.513.418,1.752,1.752,0,0,1,.192.663c.023.243.03.507.03.789v7.112a.474.474,0,0,0,.474.474h4.439a1.7,1.7,0,0,1,1.182.353,1.742,1.742,0,0,1,.367,1.271v2.794a1.865,1.865,0,0,1-.367,1.3,1.6,1.6,0,0,1-1.182.385h-4.439a.474.474,0,0,0-.474.474v30.057a2.133,2.133,0,0,0,.6,1.729,2.511,2.511,0,0,0,1.66.493,1.889,1.889,0,0,1,1.341.494,1.8,1.8,0,0,1,.531,1.381v2.89a1.689,1.689,0,0,1-.493,1.29A1.79,1.79,0,0,1,1330.219-356.728Z" transform="translate(-720.96 -22.217)" fill="#dc726f"/>
    <path id="Path_259" data-name="Path 259" d="M1431.223-338.973a.473.473,0,0,0-.818-.323,16.75,16.75,0,0,1-1.316,1.274,11.068,11.068,0,0,1-2.507,1.643,13.5,13.5,0,0,1-3.157,1.022,20.919,20.919,0,0,1-4.09.353,18.477,18.477,0,0,1-7.66-1.5,15.9,15.9,0,0,1-5.56-4.1,17.523,17.523,0,0,1-3.39-6.086,23.888,23.888,0,0,1-1.148-7.483v-23.967a2.412,2.412,0,0,1,.62-1.8,2.172,2.172,0,0,1,1.571-.592h2.611c.87,0,1.43.174,1.677.527a3.184,3.184,0,0,1,.371,1.765v24.07a16.8,16.8,0,0,0,.582,4.324,11.768,11.768,0,0,0,1.908,4.007,9.841,9.841,0,0,0,3.511,2.927,11.5,11.5,0,0,0,5.363,1.131,12,12,0,0,0,4.04-.725,11.557,11.557,0,0,0,3.67-2.132,11.111,11.111,0,0,0,2.684-3.481,10.44,10.44,0,0,0,1.04-4.779v-25.613a2.022,2.022,0,0,1,2.022-2.022h3.169c1.108,0,1.66.515,1.66,1.548v41.718a1.461,1.461,0,0,1-.46,1.131,1.559,1.559,0,0,1-1.093.424h-3.676a1.539,1.539,0,0,1-1.176-.457,1.512,1.512,0,0,1-.445-1.1Z" transform="translate(-782.576 -44.436)" fill="#dc726f"/>
  </g>
</svg>
